<svg version="1.1" id="Layer_1" xmlns="http://www.w3.org/2000/svg" xmlns:xlink="http://www.w3.org/1999/xlink" x="0px" y="0px"
	 width="100%" viewBox="0 0 900 900" enable-background="new 0 0 900 900" xml:space="preserve">
<path fill="#FFFFFF" opacity="1.000000" stroke="none" 
	d="
M481.000000,901.000000 
	C320.666656,901.000000 160.833328,901.000000 1.000000,901.000000 
	C1.000000,601.000000 1.000000,301.000000 1.000000,1.000000 
	C301.000000,1.000000 601.000000,1.000000 901.000000,1.000000 
	C901.000000,301.000000 901.000000,601.000000 901.000000,901.000000 
	C761.166687,901.000000 621.333313,901.000000 481.000000,901.000000 
M489.500000,841.000000 
	C606.575867,841.000000 723.651672,841.000000 840.682312,841.000000 
	C840.682312,580.667480 840.682312,320.970428 840.682312,61.317703 
	C580.667480,61.317703 320.970398,61.317703 61.317719,61.317703 
	C61.317719,321.332581 61.317719,581.029602 61.317719,841.000000 
	C203.923508,841.000000 346.211761,841.000000 489.500000,841.000000 
z"/>
<path fill="#FF7900" opacity="1.000000" stroke="none" 
	d="
M489.000000,841.000000 
	C346.211761,841.000000 203.923508,841.000000 61.317719,841.000000 
	C61.317719,581.029602 61.317719,321.332581 61.317719,61.317703 
	C320.970398,61.317703 580.667480,61.317703 840.682312,61.317703 
	C840.682312,320.970428 840.682312,580.667480 840.682312,841.000000 
	C723.651672,841.000000 606.575867,841.000000 489.000000,841.000000 
z"/>
</svg>